<?xml version="1.0" encoding="UTF-8" standalone="no"?>
<svg
   xmlns:dc="http://purl.org/dc/elements/1.1/"
   xmlns:cc="http://creativecommons.org/ns#"
   xmlns:rdf="http://www.w3.org/1999/02/22-rdf-syntax-ns#"
   xmlns:svg="http://www.w3.org/2000/svg"
   xmlns="http://www.w3.org/2000/svg"
   xmlns:sodipodi="http://sodipodi.sourceforge.net/DTD/sodipodi-0.dtd"
   xmlns:inkscape="http://www.inkscape.org/namespaces/inkscape"
   id="logo"
   viewBox="0 0 87.405357 63.122021"
   height="631"
   width="874"
   version="1.1"
   sodipodi:docname="logo-origem.svg"
   inkscape:version="1.0.1 (3bc2e813f5, 2020-09-07)">
  <metadata
     id="metadata17">
    <rdf:RDF>
      <cc:Work
         rdf:about="">
        <dc:format>image/svg+xml</dc:format>
        <dc:type
           rdf:resource="http://purl.org/dc/dcmitype/StillImage" />
      </cc:Work>
    </rdf:RDF>
  </metadata>
  <defs
     id="defs15" />
  <sodipodi:namedview
     pagecolor="#ffffff"
     bordercolor="#666666"
     borderopacity="1"
     objecttolerance="10"
     gridtolerance="10"
     guidetolerance="10"
     inkscape:pageopacity="0"
     inkscape:pageshadow="2"
     inkscape:window-width="1366"
     inkscape:window-height="705"
     id="namedview13"
     showgrid="false"
     inkscape:zoom="0.56"
     inkscape:cx="780.0349"
     inkscape:cy="326.91907"
     inkscape:window-x="-8"
     inkscape:window-y="-8"
     inkscape:window-maximized="1"
     inkscape:current-layer="logo"
     inkscape:document-rotation="0"
     showguides="true"
     inkscape:guide-bbox="true" />
  <text
     xml:space="preserve"
     style="font-style:normal;font-weight:normal;font-size:11.3424px;line-height:1.25;font-family:sans-serif;fill:#ffffff;fill-opacity:1;stroke:none;stroke-width:0.283558;"
     x="9.3504734"
     y="14.613459"
     id="text955-8"><tspan
       sodipodi:role="line"
       id="tspan953-0"
       x="9.3504734"
       y="14.613459"
       style="font-style:normal;font-variant:normal;font-weight:bold;font-stretch:normal;font-family:sans-serif;-inkscape-font-specification:'sans-serif Bold';fill:#ffffff;stroke-width:0.283558;">i</tspan><tspan
       sodipodi:role="line"
       x="9.3504734"
       y="28.791458"
       style="font-style:normal;font-variant:normal;font-weight:bold;font-stretch:normal;font-family:sans-serif;-inkscape-font-specification:'sans-serif Bold';fill:#ffffff;stroke-width:0.283558;"
       id="tspan20">i    Care</tspan><tspan
       sodipodi:role="line"
       x="9.3504734"
       y="42.96946"
       style="font-style:normal;font-variant:normal;font-weight:bold;font-stretch:normal;font-family:sans-serif;-inkscape-font-specification:'sans-serif Bold';fill:#ffffff;stroke-width:0.283558;"
       id="tspan22">i52Care</tspan><tspan
       sodipodi:role="line"
       x="9.3504734"
       y="57.147457"
       style="font-style:normal;font-variant:normal;font-weight:bold;font-stretch:normal;font-family:sans-serif;-inkscape-font-specification:'sans-serif Bold';fill:#ffffff;stroke-width:0.283558;"
       id="tspan24">iLoveCare</tspan></text>
  <path
     style="fill:#0b2228;stroke:#000000;stroke-width:0.0507717px;stroke-linecap:butt;stroke-linejoin:miter;stroke-opacity:1"
     d="m 28.628411,6.0380366 2.863164,-1e-6 V 8.901206 l 2.863173,3.7e-6 v 2.8631723 h -2.863173 v 2.863173 H 28.628411 V 11.764382 H 25.765229 V 8.9012097 h 2.863182 z"
     id="path839-33-2"
     sodipodi:nodetypes="ccccccccccccc" />
  <path
     style="fill:#0088bb;fill-opacity:1;stroke:none;stroke-width:0.0538922px;stroke-linecap:butt;stroke-linejoin:miter;stroke-opacity:1"
     d="m 19.26771,14.627555 c -0.628636,-0.906868 -1.767766,-1.760553 -3.010016,-2.566098 -1.107643,-0.699104 -1.988701,-1.532331 -2.51735,-2.5741614 -0.683128,-1.6197634 0.123359,-2.6423622 1.383277,-3.4831818 1.996282,-0.6007686 3.192137,0.9940577 4.145337,2.1951491 0.95319,-1.2010914 2.149036,-2.7959186 4.145317,-2.1951491 1.259928,0.8408196 2.066406,1.8634184 1.383277,3.4831818 -0.528648,1.0418304 -1.409716,1.8750574 -2.517368,2.5741614 -1.311877,0.850709 -2.4104,1.602072 -3.012474,2.566098 z"
     id="path42-5-4-4"
     sodipodi:nodetypes="ccccccccccc" />
  <path
     style="fill:#0088bb;fill-opacity:1;stroke:none;stroke-width:0.0538922px;stroke-linecap:butt;stroke-linejoin:miter;stroke-opacity:1"
     d="m 19.325364,28.838543 c -0.628636,-0.906867 -1.767765,-1.760551 -3.010016,-2.566097 -1.107642,-0.699105 -1.988701,-1.532332 -2.517349,-2.574161 -0.683129,-1.619762 0.123359,-2.642363 1.383277,-3.483181 1.996282,-0.60077 3.192137,0.994056 4.145336,2.195149 0.95319,-1.201093 2.149036,-2.795921 4.145318,-2.195149 1.259927,0.840818 2.066406,1.863419 1.383277,3.483181 -0.528648,1.041829 -1.409716,1.875056 -2.517368,2.574161 -1.311877,0.850708 -2.4104,1.602073 -3.012475,2.566097 z"
     id="path42-5-4-4-0"
     sodipodi:nodetypes="ccccccccccc" />
</svg>
